<svg xmlns="http://www.w3.org/2000/svg" width="81.333" height="96.381" viewBox="0 0 81.333 96.381"><g transform="translate(-5.003 -0.008)"><path d="M10.509,37.03H37.623a1.5,1.5,0,0,0,1.506-1.506V29.5a1.5,1.5,0,0,0-1.506-1.506H10.509A1.5,1.5,0,0,0,9,29.5v6.025A1.5,1.5,0,0,0,10.509,37.03ZM12.016,31h24.1v3.013h-24.1Z" transform="translate(2.025 14.169)" fill="#2a2121"/><path d="M27.522,35.992a4.519,4.519,0,1,0,4.519,4.519A4.525,4.525,0,0,0,27.522,35.992Zm0,6.025a1.506,1.506,0,1,1,1.506-1.506A1.507,1.507,0,0,1,27.522,42.017Z" transform="translate(9.114 18.22)" fill="#2a2121"/><path d="M20.522,35.992a4.519,4.519,0,1,0,4.519,4.519A4.525,4.525,0,0,0,20.522,35.992Zm0,6.025a1.506,1.506,0,1,1,1.506-1.506A1.507,1.507,0,0,1,20.522,42.017Z" transform="translate(5.57 18.22)" fill="#2a2121"/><path d="M13.522,45.03A4.519,4.519,0,1,0,9,40.511,4.525,4.525,0,0,0,13.522,45.03Zm0-6.025a1.506,1.506,0,1,1-1.506,1.506A1.507,1.507,0,0,1,13.522,39Z" transform="translate(2.025 18.22)" fill="#2a2121"/><path d="M27.522,42.992a4.519,4.519,0,1,0,4.519,4.519A4.525,4.525,0,0,0,27.522,42.992Zm0,6.025a1.506,1.506,0,1,1,1.506-1.506A1.507,1.507,0,0,1,27.522,49.017Z" transform="translate(9.114 21.764)" fill="#2a2121"/><path d="M20.522,42.992a4.519,4.519,0,1,0,4.519,4.519A4.525,4.525,0,0,0,20.522,42.992Zm0,6.025a1.506,1.506,0,1,1,1.506-1.506A1.507,1.507,0,0,1,20.522,49.017Z" transform="translate(5.57 21.764)" fill="#2a2121"/><path d="M13.522,52.03A4.519,4.519,0,1,0,9,47.511,4.525,4.525,0,0,0,13.522,52.03Zm0-6.025a1.506,1.506,0,1,1-1.506,1.506A1.507,1.507,0,0,1,13.522,46Z" transform="translate(2.025 21.764)" fill="#2a2121"/><path d="M27.522,49.992a4.519,4.519,0,1,0,4.519,4.519A4.525,4.525,0,0,0,27.522,49.992Zm0,6.025a1.506,1.506,0,1,1,1.506-1.506A1.507,1.507,0,0,1,27.522,56.017Z" transform="translate(9.114 25.309)" fill="#2a2121"/><path d="M20.522,49.992a4.519,4.519,0,1,0,4.519,4.519A4.525,4.525,0,0,0,20.522,49.992Zm0,6.025a1.506,1.506,0,1,1,1.506-1.506A1.507,1.507,0,0,1,20.522,56.017Z" transform="translate(5.57 25.309)" fill="#2a2121"/><path d="M13.522,59.03A4.519,4.519,0,1,0,9,54.511,4.525,4.525,0,0,0,13.522,59.03Zm0-6.025a1.506,1.506,0,1,1-1.506,1.506A1.507,1.507,0,0,1,13.522,53Z" transform="translate(2.025 25.309)" fill="#2a2121"/><path d="M50.6,19.061h-.113a12.1,12.1,0,0,0-5.912-8.895V9.532a1.336,1.336,0,0,0-.044-.218,1.562,1.562,0,0,0-.065-.324,1.394,1.394,0,0,0-.152-.258,1.366,1.366,0,0,0-.155-.226,1.474,1.474,0,0,0-.285-.215,1.356,1.356,0,0,0-.158-.119c-.015-.008-.032-.012-.045-.02l-.035-.014a12.108,12.108,0,0,0-10.175,0,.141.141,0,0,0-.023.009l-.048.02a1.382,1.382,0,0,0-.176.133,1.547,1.547,0,0,0-.27.2,1.693,1.693,0,0,0-.157.232,1.5,1.5,0,0,0-.152.255,1.63,1.63,0,0,0-.065.322,1.386,1.386,0,0,0-.044.22v.636a12.109,12.109,0,0,0-5.924,8.9h-.1a1.5,1.5,0,0,0-1.506,1.506v4.519a1.5,1.5,0,0,0,1.506,1.506H50.6A1.5,1.5,0,0,0,52.1,25.085V20.566a1.5,1.5,0,0,0-1.506-1.5Zm-18.073-5.23v.708a1.506,1.506,0,1,0,3.013,0v-4a9.1,9.1,0,0,1,6.022,0v4a1.506,1.506,0,1,0,3.013,0v-.7a9.11,9.11,0,0,1,2.867,5.221H29.644a9.12,9.12,0,0,1,2.879-5.23ZM49.089,23.58H28V22.074H49.089Z" transform="translate(10.119 3.548)" fill="#2a2121"/><path d="M48.5,29.019h4.519a1.506,1.506,0,0,0,0-3.013H48.5a1.506,1.506,0,0,0,0,3.013Z" transform="translate(21.263 13.164)" fill="#2a2121"/><path d="M53.53,31.006H47.5a1.506,1.506,0,0,0,0,3.013H53.53a1.506,1.506,0,0,0,0-3.013Z" transform="translate(20.757 15.695)" fill="#2a2121"/><path d="M53.023,36.006H48.5a1.506,1.506,0,0,0,0,3.013h4.519a1.506,1.506,0,0,0,0-3.013Z" transform="translate(21.263 18.227)" fill="#2a2121"/><path d="M52.516,41.006H49.505a1.506,1.506,0,1,0,0,3.013h3.011a1.506,1.506,0,0,0,0-3.013Z" transform="translate(21.77 20.759)" fill="#2a2121"/><path d="M53.023,46.006H48.5a1.506,1.506,0,0,0,0,3.013h4.519a1.506,1.506,0,0,0,0-3.013Z" transform="translate(21.263 23.29)" fill="#2a2121"/><path d="M53.53,51.006H47.5a1.506,1.506,0,0,0,0,3.013H53.53a1.506,1.506,0,0,0,0-3.013Z" transform="translate(20.757 25.822)" fill="#2a2121"/><path d="M86.333,12.05A1.5,1.5,0,0,0,85.893,11L75.353.451A1.525,1.525,0,0,0,74.287.008h-48.2a1.5,1.5,0,0,0-1.506,1.506V36.136H9.522A4.525,4.525,0,0,0,5,40.655V91.87a4.525,4.525,0,0,0,4.519,4.519H42.661A4.525,4.525,0,0,0,47.18,91.87V90.358H84.83a1.5,1.5,0,0,0,1.506-1.506V12.065c0-.006,0-.011,0-.015Zm-10.54-6.9,5.4,5.406h-5.4ZM8.016,40.655a1.507,1.507,0,0,1,1.506-1.506H42.661a1.507,1.507,0,0,1,1.506,1.506v45.19a1.507,1.507,0,0,1-1.506,1.506H9.522a1.507,1.507,0,0,1-1.506-1.506V40.655ZM42.661,93.377H9.522A1.507,1.507,0,0,1,8.016,91.87V90.085a4.462,4.462,0,0,0,1.506.279H42.661a4.426,4.426,0,0,0,1.506-.279V91.87A1.507,1.507,0,0,1,42.661,93.377Zm4.519-7.532v-6H60.725a1.506,1.506,0,1,0,0-3.013H47.18V72.309H60.725a1.506,1.506,0,1,0,0-3.013H47.18V64.777H60.725a1.506,1.506,0,1,0,0-3.013H47.18V57.246H60.725a1.506,1.506,0,1,0,0-3.013H47.18V49.714H60.725a1.506,1.506,0,1,0,0-3.013H47.18V42.182H60.725a1.506,1.506,0,1,0,0-3.013H46.909a4.513,4.513,0,0,0-4.248-3.034H27.6V3.021H72.78v9.044a1.5,1.5,0,0,0,1.506,1.506h9.036V87.347H47.18Z" transform="translate(0)" fill="#2a2121"/></g></svg>