<svg xmlns="http://www.w3.org/2000/svg" width="100.189" height="95.173" viewBox="0 0 100.189 95.173"><g transform="translate(-614.001 1.187)"><g transform="translate(614.001 -1.187)"><g transform="translate(0)"><path d="M95.931,12.813H25.948a4.264,4.264,0,0,0-4.259,4.259v19.3l-3.2-4.8a4.949,4.949,0,0,0-6.681-1.5L5.224,34.03A9.66,9.66,0,0,0,.812,39.754c-2.4,8.745-.62,23.812,21.5,45.931,17.587,17.569,30.7,22.3,39.738,22.3a23.334,23.334,0,0,0,6.2-.808,9.677,9.677,0,0,0,5.725-4.408l3.953-6.591a4.949,4.949,0,0,0-1.5-6.673L60.652,79a4.976,4.976,0,0,0-6.661,1.081l-4.59,5.9a1.6,1.6,0,0,1-2.044.433l-.874-.481c-2.874-1.567-6.452-3.517-13.677-10.743-.782-.782-1.49-1.513-2.155-2.213H95.931a4.256,4.256,0,0,0,4.259-4.239V17.072A4.264,4.264,0,0,0,95.931,12.813ZM44.885,88.864l.848.466a4.92,4.92,0,0,0,6.305-1.3l4.59-5.9a1.623,1.623,0,0,1,2.171-.353L74.565,92.286a1.613,1.613,0,0,1,.489,2.171L71.1,101.048a6.347,6.347,0,0,1-3.743,2.906c-7.9,2.171-21.713.334-42.684-20.639S1.872,48.526,4.038,40.637a6.347,6.347,0,0,1,2.9-3.743l6.591-3.955a1.615,1.615,0,0,1,2.171.489L26.219,49.194a1.622,1.622,0,0,1-.353,2.171l-5.9,4.591a4.919,4.919,0,0,0-1.3,6.3l.468.848c1.67,3.063,3.746,6.875,11.314,14.441S41.824,87.193,44.885,88.864ZM96.85,68.736a.912.912,0,0,1-.919.9H27.639a42.122,42.122,0,0,1-5.574-8.124l-.481-.877a1.593,1.593,0,0,1,.431-2.041L27.917,54A4.974,4.974,0,0,0,29,47.343L25.03,41.387V17.072a.908.908,0,0,1,.919-.919H95.931a.908.908,0,0,1,.919.919V68.736Z" transform="translate(-0.001 -12.813)" fill="#2a2121"/><path d="M209.462,50.927,181.547,72.1a2.253,2.253,0,0,1-2.649,0l-27.9-21.17a1.671,1.671,0,1,0-2.019,2.662l27.908,21.168a5.622,5.622,0,0,0,6.681,0L211.48,53.59a1.67,1.67,0,0,0-2.018-2.662Z" transform="translate(-119.285 -43.194)" fill="#2a2121"/><path d="M166.368,172.877,149.259,191.2a1.67,1.67,0,0,0,2.443,2.278l17.11-18.331a1.67,1.67,0,0,0-2.444-2.27Z" transform="translate(-119.684 -141.173)" fill="#2a2121"/><path d="M372.844,172.61a1.67,1.67,0,1,0-2.443,2.278l17.1,18.322a1.67,1.67,0,0,0,2.443-2.278Z" transform="translate(-297.541 -140.905)" fill="#2a2121"/></g></g></g></svg>