<svg xmlns="http://www.w3.org/2000/svg" width="100.001" height="98.669" viewBox="0 0 100.001 98.669"><path d="M99.593,122.132,82.855,100.39a1.961,1.961,0,0,0-2.606-.458L69.443,106.8H55.349a1.943,1.943,0,0,0-.539.09L43.882,110.04l-11.339-3.1L21.525,99.932a1.96,1.96,0,0,0-2.578.423L.434,123.286A1.96,1.96,0,0,0,.681,126l9.7,8.35,8.705,11.731a6.924,6.924,0,0,0,4.356,11.63,6.974,6.974,0,0,0-.081,1.06,6.93,6.93,0,0,0,6.93,6.93l.074,0c0,.047,0,.094,0,.141a6.929,6.929,0,0,0,6.93,6.93,7.07,7.07,0,0,0,1.082-.085,6.93,6.93,0,0,0,11.793,4.219l1.06-1.06.445.359a6.926,6.926,0,0,0,11.744-5.089,6.918,6.918,0,0,0,7.034-7.031,6.924,6.924,0,0,0,7.034-7.037,6.926,6.926,0,0,0,5.92-10.7l6.356-13.312,9.556-8.223a1.961,1.961,0,0,0,.275-2.683ZM20.9,104.181l7.922,5.038-17.234,21L4.68,124.27ZM22.016,148.7l2.391-2.391c.072-.072.149-.141.227-.205a3,3,0,0,1,1.633-.663l.051,0c.085-.007.171-.011.257-.011a2.99,2.99,0,0,1,2.145.942,3.083,3.083,0,0,1-.133,4.266l-2.319,2.319a3.008,3.008,0,0,1-4.253-4.254Zm6.152,12.2a3.007,3.007,0,0,1,0-4.253l4.636-4.636a3.04,3.04,0,0,1,3.42-.591,3,3,0,0,1,1.657,3.106,3.174,3.174,0,0,1-.9,1.812L32.422,160.9a3.008,3.008,0,0,1-4.254,0Zm7,7.069a3.007,3.007,0,0,1,0-4.253L39.8,159.08a3.042,3.042,0,0,1,3.636-.477,2.993,2.993,0,0,1,1.436,3.04,3.178,3.178,0,0,1-.891,1.765l-4.562,4.562a3.008,3.008,0,0,1-4.254,0Zm7.974,6.165a3.011,3.011,0,0,1,0-4.253l2.391-2.391c.072-.072.148-.14.226-.2l.005,0a3,3,0,0,1,1.334-.62l.034,0c.084-.015.169-.027.255-.035.034,0,.069,0,.1-.005.07,0,.14-.008.211-.008a2.989,2.989,0,0,1,2.145.942,2.717,2.717,0,0,1,.194.228,3.1,3.1,0,0,1-.339,4.05L47.4,174.135a3.011,3.011,0,0,1-4.253,0Zm36.579-21.884a3.01,3.01,0,0,1-4.253,0,1.785,1.785,0,0,0-.134-.12L62.726,139.39a1.961,1.961,0,0,0-2.788,2.759l12.745,12.878,0,0a3.008,3.008,0,1,1-4.254,4.254l-8.526-8.614a1.961,1.961,0,1,0-2.787,2.759l8.4,8.482a1.857,1.857,0,0,0,.137.153,3.008,3.008,0,1,1-4.255,4.253l-4.653-4.7a1.961,1.961,0,1,0-2.788,2.758l4.524,4.57a1.745,1.745,0,0,0,.138.154,3.008,3.008,0,0,1-4.253,4.254,4.339,4.339,0,0,0-.445-.355c-.128-.1-.162-.166-.1-.321s.162-.3.227-.459c.072-.177.13-.359.186-.542a7.07,7.07,0,0,0,.254-3.017,6.859,6.859,0,0,0-5.846-5.9,6.994,6.994,0,0,0-1.679-6.31,6.878,6.878,0,0,0-4.939-2.168h-.207a6.862,6.862,0,0,0-6.793-7.069,7.053,7.053,0,0,0-1.673.178,6.9,6.9,0,0,0-11.458-4.1l-7.58-10.214,18.134-22.092,5.779,1.581L30.68,125.878a6.931,6.931,0,0,0,2.613,9.445q.151.086.305.163l.024.011a6.98,6.98,0,0,0,.832.349,6.929,6.929,0,0,0,8.285-3.136l4.9-8.656,8.758.621L79.723,148a3.013,3.013,0,0,1,0,4.254Zm.813-8.988L58.657,121.386a1.74,1.74,0,0,0-.13-.119,1.962,1.962,0,0,0-1.118-.45l-10.723-.761a1.993,1.993,0,0,0-1.845.99l-5.515,9.732a3.008,3.008,0,1,1-5.234-2.966l7.362-12.992,2.983-.858.059-.02,11.134-3.215H69.082l16.794,21.349ZM88.445,129,72.915,109.243l7.926-5.041,14.512,18.85Zm0,0" transform="translate(0.001 -80.265)" fill="#2a2121"/><path d="M302.106,46.187a1.956,1.956,0,0,0,1.387-.574l13.394-13.394a1.961,1.961,0,1,0-2.773-2.773L300.719,42.84a1.961,1.961,0,0,0,1.386,3.348Zm0,0" transform="translate(-241.522 -23.33)" fill="#2a2121"/><path d="M137.164,45.613a1.961,1.961,0,0,0,2.773-2.773L126.543,29.446a1.961,1.961,0,1,0-2.773,2.773Zm0,0" transform="translate(-99.134 -23.33)" fill="#2a2121"/><path d="M247.922,55.705a1.961,1.961,0,0,0,1.961-1.961V42.66a1.961,1.961,0,0,0-3.922,0V53.744A1.961,1.961,0,0,0,247.922,55.705Zm0,0" transform="translate(-197.921 -32.848)" fill="#2a2121"/><path d="M246.132,3.205a1.96,1.96,0,1,0,3-2.306,1.96,1.96,0,0,0-3,2.306Zm0,0" transform="translate(-197.941 -0.5)" fill="#2a2121"/></svg>