<svg xmlns="http://www.w3.org/2000/svg" width="61.042" height="58.472" viewBox="0 0 61.042 58.472"><path d="M60.9,22.893c-.936-2.927-6.088-3.6-11.542-4.318-2.99-.392-6.387-.836-7.412-1.6s-2.473-3.856-3.746-6.6C35.885,5.4,33.693.7,30.628.687L30.571.678c-3.039.051-5.254,4.7-7.609,9.629-1.3,2.726-2.774,5.817-3.8,6.565s-4.437,1.158-7.437,1.521c-5.449.663-10.608,1.285-11.571,4.2s2.8,6.491,6.792,10.273c2.19,2.08,4.67,4.437,5.061,5.65s-.271,4.578-.849,7.535C10.1,51.436,9.1,56.539,11.571,58.363a3.584,3.584,0,0,0,2.211.618c2.522-.04,6.15-2,9.657-3.9C26.067,53.64,29.048,52.02,30.374,52c1.283,0,4.272,1.665,6.91,3.134,3.587,1.991,7.3,4.053,9.824,4.011a3.44,3.44,0,0,0,2.01-.61c2.486-1.79,1.538-6.891.54-12.3-.549-2.963-1.165-6.336-.777-7.548s2.91-3.534,5.121-5.6C58.028,29.346,61.829,25.82,60.9,22.893Z" transform="translate(0 -0.678)" fill="#9e9a1d"/></svg>