<svg xmlns="http://www.w3.org/2000/svg" width="99.024" height="100" viewBox="0 0 99.024 100"><path d="M241.889,277.155a1.476,1.476,0,1,0-2.013,2.16c.3.277.578.558.847.846a13.095,13.095,0,1,1-5.94-3.722,1.476,1.476,0,1,0,.84-2.83,16.04,16.04,0,1,0,6.249,27.23,16.045,16.045,0,0,0,1.022-22.679c-.327-.351-.656-.68-1-1Zm0,0" transform="translate(-173.117 -219.641)" fill="#2a2121"/><path d="M119.263,152.656a8.623,8.623,0,1,0,6.889,8.444,8.633,8.633,0,0,0-6.889-8.444Zm-1.736,14.118A5.671,5.671,0,1,1,123.2,161.1,5.677,5.677,0,0,1,117.526,166.774Zm0,0" transform="translate(-87.733 -122.699)" fill="#2a2121"/><path d="M99.524,25.673A25.47,25.47,0,0,0,96.87,14.294,1.476,1.476,0,0,0,94.224,15.6,22.725,22.725,0,1,1,73.851,2.952a22.8,22.8,0,0,1,16.607,7.215,1.476,1.476,0,1,0,2.158-2.015,25.673,25.673,0,0,0-42.557,7.877L48.7,14.67a4.323,4.323,0,0,0-6.1,0l-1.141,1.144a24.848,24.848,0,0,0-3.1-1.268V12.916A4.313,4.313,0,0,0,34.06,8.609H26.53a4.313,4.313,0,0,0-4.308,4.307v1.77a24.594,24.594,0,0,0-2.963,1.266L17.979,14.67a4.312,4.312,0,0,0-6.091,0L6.56,20a4.316,4.316,0,0,0,0,6.091L7.976,27.5a24.679,24.679,0,0,0-1.138,2.828H4.806A4.312,4.312,0,0,0,.5,34.64v7.529a4.312,4.312,0,0,0,4.307,4.308h2.17A24.936,24.936,0,0,0,8.105,49.17L6.561,50.714a4.322,4.322,0,0,0,0,6.1l5.326,5.32a4.312,4.312,0,0,0,6.092,0l1.543-1.543a24.551,24.551,0,0,0,2.7,1.131v2.173A4.311,4.311,0,0,0,26.53,68.2h1.424l-.166,3.619a4.388,4.388,0,0,0,4.178,4.576l2.074.094a25.725,25.725,0,0,0,1.107,2.971l-1.56,1.422a4.386,4.386,0,0,0-.275,6.187l5.2,5.7a4.392,4.392,0,0,0,6.187.279l1.659-1.518a25.451,25.451,0,0,0,2.763,1.279l-.1,2.266a4.382,4.382,0,0,0,4.172,4.571l7.713.352c.066,0,.134,0,.2,0a4.388,4.388,0,0,0,4.371-4.181l.1-2.264a25.063,25.063,0,0,0,2.868-1.025l1.518,1.664a4.386,4.386,0,0,0,6.184.283l5.7-5.2a4.387,4.387,0,0,0,.278-6.19L80.71,81.531a25.467,25.467,0,0,0,1.373-2.863l2.068.095a4.38,4.38,0,0,0,4.575-4.172l.352-7.713a4.381,4.381,0,0,0-4.174-4.57l-1.879-.084a25.45,25.45,0,0,0-1.1-3.162l1.359-1.241a4.392,4.392,0,0,0,.28-6.187l-1.5-1.64a25.713,25.713,0,0,0,17.462-24.32ZM28.14,64.112l-.052,1.136H26.531a1.373,1.373,0,0,1-1.355-1.355V60.649a1.476,1.476,0,0,0-1.052-1.414,21.569,21.569,0,0,1-4.17-1.748,1.476,1.476,0,0,0-1.754.25l-2.307,2.308a1.357,1.357,0,0,1-1.918,0l-5.325-5.32a1.369,1.369,0,0,1,0-1.923l2.307-2.307a1.475,1.475,0,0,0,.251-1.752,22.062,22.062,0,0,1-1.749-4.171,1.476,1.476,0,0,0-1.412-1.047H4.807a1.357,1.357,0,0,1-1.355-1.356V34.64a1.357,1.357,0,0,1,1.355-1.356H7.93a1.475,1.475,0,0,0,1.421-1.077,21.6,21.6,0,0,1,1.727-4.3,1.476,1.476,0,0,0-.259-1.737L8.648,24a1.363,1.363,0,0,1,0-1.917l5.327-5.326a1.357,1.357,0,0,1,1.917,0l2.054,2.055a1.477,1.477,0,0,0,1.769.242,21.6,21.6,0,0,1,4.408-1.882,1.477,1.477,0,0,0,1.054-1.414V12.916a1.356,1.356,0,0,1,1.355-1.355h7.53a1.373,1.373,0,0,1,1.356,1.355v2.721a1.476,1.476,0,0,0,1.072,1.42,21.807,21.807,0,0,1,4.544,1.862,1.475,1.475,0,0,0,1.757-.251l1.905-1.91a1.368,1.368,0,0,1,1.921,0l2.4,2.4a25.646,25.646,0,0,0,3.587,20.9,4.41,4.41,0,0,0-1.212,2.823l-.074,1.678a25.471,25.471,0,0,0-3.268,1.2l-1.143-1.254a4.341,4.341,0,0,0-1.717-1.154A15.672,15.672,0,1,0,33.726,53.718a4.345,4.345,0,0,0,1.012,1.893l1.241,1.363a25.306,25.306,0,0,0-1.387,3.046l-1.881-.087a4.388,4.388,0,0,0-4.571,4.178ZM43.033,38.4a12.626,12.626,0,0,1-1.024,5.011,4.362,4.362,0,0,0-1.288.811l-5.7,5.2a4.345,4.345,0,0,0-.881,1.124A12.743,12.743,0,1,1,43.033,38.4Zm41.74,26.855a1.443,1.443,0,0,1,1.357,1.488l-.352,7.713a1.414,1.414,0,0,1-.466.987,1.4,1.4,0,0,1-1.022.369l-3.14-.143a1.476,1.476,0,0,0-1.459.981,22.341,22.341,0,0,1-2.061,4.293,1.476,1.476,0,0,0,.166,1.772l2.153,2.357a1.425,1.425,0,0,1,.372,1.033,1.405,1.405,0,0,1-.459.986l-5.7,5.2a1.433,1.433,0,0,1-2.013-.092l-2.242-2.457a1.477,1.477,0,0,0-1.729-.336,22.142,22.142,0,0,1-4.369,1.559,1.476,1.476,0,0,0-1.127,1.367l-.155,3.345a1.435,1.435,0,0,1-1.487,1.363l-7.713-.353A1.444,1.444,0,0,1,51.97,95.2l.149-3.343a1.475,1.475,0,0,0-.993-1.461,22.415,22.415,0,0,1-4.211-1.952,1.476,1.476,0,0,0-1.756.177l-2.449,2.24a1.436,1.436,0,0,1-2.02-.092l-5.2-5.7a1.435,1.435,0,0,1,.088-2.016l2.363-2.154a1.476,1.476,0,0,0,.327-1.749A22.781,22.781,0,0,1,36.6,74.694a1.476,1.476,0,0,0-1.362-1.106L32.1,73.445a1.437,1.437,0,0,1-1.362-1.492l.352-7.707a1.438,1.438,0,0,1,1.487-1.363l2.974.138a1.478,1.478,0,0,0,1.472-1.015,22.4,22.4,0,0,1,2.036-4.48,1.476,1.476,0,0,0-.177-1.748L36.92,53.623a1.435,1.435,0,0,1,.091-2.014l5.7-5.2a1.435,1.435,0,0,1,2.013.091l1.878,2.06a1.476,1.476,0,0,0,1.753.325,22.6,22.6,0,0,1,4.74-1.736,1.475,1.475,0,0,0,1.123-1.369l.121-2.754a1.394,1.394,0,0,1,.134-.529,25.661,25.661,0,0,0,24.069,8.417c.1-.015.2-.033.308-.053l2.529,2.767a1.433,1.433,0,0,1-.092,2.019L79.14,57.6a1.476,1.476,0,0,0-.336,1.727,22.408,22.408,0,0,1,1.623,4.652A1.476,1.476,0,0,0,81.8,65.126Zm0,0" transform="translate(-0.5 0)" fill="#2a2121"/><path d="M255.335,311.971l-.073.057c-.031.026-.06.053-.09.079-.081.069-.162.137-.24.21-.109.1-.215.2-.318.3l-.085.09c-.072.075-.145.15-.214.227-.084.092-.164.188-.244.284l-.038.045c-.084.1-.164.207-.243.312l-.023.029c-.066.09-.129.182-.192.274-.018.027-.037.052-.055.079-.058.086-.112.175-.166.263-.021.034-.043.066-.063.1a8.664,8.664,0,0,0-.835,1.883c-.008.024-.016.048-.024.073a8.855,8.855,0,0,0-.277,1.254.044.044,0,0,0,0,.01c-.009.064-.015.128-.023.191-.027.225-.049.452-.059.68a8.8,8.8,0,0,0,14.726,6.9c.112-.1.22-.207.327-.314a8.8,8.8,0,0,0-11.788-13.03Zm9.844,2.9a5.848,5.848,0,1,1-8.637,7.886,5.8,5.8,0,0,1-1.521-3.625q-.015-.29,0-.581a5.8,5.8,0,0,1,1.9-4.051h0a5.8,5.8,0,0,1,3.937-1.53c.09,0,.18,0,.271.006A5.8,5.8,0,0,1,265.179,314.87Zm0,0" transform="translate(-202.927 -249.465)" fill="#2a2121"/><path d="M299.487,36.266a18.587,18.587,0,1,0,18.584,18.59,18.609,18.609,0,0,0-18.584-18.59ZM314.42,56.331h.628a15.655,15.655,0,0,1-14.084,14.084v-.628a1.476,1.476,0,0,0-2.953,0v.628a15.655,15.655,0,0,1-14.084-14.084h.628a1.476,1.476,0,0,0,0-2.952h-.628a15.659,15.659,0,0,1,14.084-14.09v.634a1.476,1.476,0,0,0,2.953,0v-.634a15.659,15.659,0,0,1,14.084,14.09h-.628a1.476,1.476,0,1,0,0,2.952Zm0,0" transform="translate(-226.136 -29.182)" fill="#2a2121"/><path d="M349.8,86.437a1.476,1.476,0,0,0-1.476,1.476v8.323H344.9a1.476,1.476,0,1,0,0,2.952h4.9a1.476,1.476,0,0,0,1.476-1.476v-9.8A1.477,1.477,0,0,0,349.8,86.437Zm0,0" transform="translate(-276.448 -69.555)" fill="#2a2121"/></svg>